<svg id="visual" viewBox="0 0 900 600" width="900" height="600" xmlns="http://www.w3.org/2000/svg" xmlns:xlink="http://www.w3.org/1999/xlink" version="1.1"><path d="M0 150L18.8 158.3C37.7 166.7 75.3 183.3 112.8 190.2C150.3 197 187.7 194 225.2 201.5C262.7 209 300.3 227 337.8 220.2C375.3 213.3 412.7 181.7 450.2 174C487.7 166.3 525.3 182.7 562.8 185.8C600.3 189 637.7 179 675.2 185.8C712.7 192.7 750.3 216.3 787.8 220.7C825.3 225 862.7 210 881.3 202.5L900 195L900 0L881.3 0C862.7 0 825.3 0 787.8 0C750.3 0 712.7 0 675.2 0C637.7 0 600.3 0 562.8 0C525.3 0 487.7 0 450.2 0C412.7 0 375.3 0 337.8 0C300.3 0 262.7 0 225.2 0C187.7 0 150.3 0 112.8 0C75.3 0 37.7 0 18.8 0L0 0Z" fill="#091627"></path><path d="M0 116L18.8 115.5C37.7 115 75.3 114 112.8 118.2C150.3 122.3 187.7 131.7 225.2 131C262.7 130.3 300.3 119.7 337.8 128.3C375.3 137 412.7 165 450.2 164.2C487.7 163.3 525.3 133.7 562.8 119.2C600.3 104.7 637.7 105.3 675.2 119.3C712.7 133.3 750.3 160.7 787.8 173.5C825.3 186.3 862.7 184.7 881.3 183.8L900 183L900 0L881.3 0C862.7 0 825.3 0 787.8 0C750.3 0 712.7 0 675.2 0C637.7 0 600.3 0 562.8 0C525.3 0 487.7 0 450.2 0C412.7 0 375.3 0 337.8 0C300.3 0 262.7 0 225.2 0C187.7 0 150.3 0 112.8 0C75.3 0 37.7 0 18.8 0L0 0Z" fill="#0c1122"></path><path d="M0 110L18.8 112.7C37.7 115.3 75.3 120.7 112.8 123.8C150.3 127 187.7 128 225.2 130.3C262.7 132.7 300.3 136.3 337.8 126.7C375.3 117 412.7 94 450.2 92.2C487.7 90.3 525.3 109.7 562.8 117C600.3 124.3 637.7 119.7 675.2 112.8C712.7 106 750.3 97 787.8 97.5C825.3 98 862.7 108 881.3 113L900 118L900 0L881.3 0C862.7 0 825.3 0 787.8 0C750.3 0 712.7 0 675.2 0C637.7 0 600.3 0 562.8 0C525.3 0 487.7 0 450.2 0C412.7 0 375.3 0 337.8 0C300.3 0 262.7 0 225.2 0C187.7 0 150.3 0 112.8 0C75.3 0 37.7 0 18.8 0L0 0Z" fill="#0d0b1c"></path><path d="M0 32L18.8 33.5C37.7 35 75.3 38 112.8 44.5C150.3 51 187.7 61 225.2 65.2C262.7 69.3 300.3 67.7 337.8 62.8C375.3 58 412.7 50 450.2 44.2C487.7 38.3 525.3 34.7 562.8 36.5C600.3 38.3 637.7 45.7 675.2 50.3C712.7 55 750.3 57 787.8 53.8C825.3 50.7 862.7 42.3 881.3 38.2L900 34L900 0L881.3 0C862.7 0 825.3 0 787.8 0C750.3 0 712.7 0 675.2 0C637.7 0 600.3 0 562.8 0C525.3 0 487.7 0 450.2 0C412.7 0 375.3 0 337.8 0C300.3 0 262.7 0 225.2 0C187.7 0 150.3 0 112.8 0C75.3 0 37.7 0 18.8 0L0 0Z" fill="#0d0317"></path></svg>